# xmcd
#
# Track frame offsets: 
#        150
#        12750
#        28650
#        35887
#        46475
#        60450
#        76050
#        92437
#        103825
#        118612
#        132862
#        140437
#        151912
#        160387
#
# Disc length: 2292 seconds
#
# Revision: 2
# Processed by: cddbd v1.5.2PL0 Copyright (c) Steve Scherf et al.
# Submitted via: ExactAudioCopy v0.99pb4
#
DISCID=ae08f20e
DTITLE=Brave Combo - A Night on Earth
DYEAR=1990
DGENRE=Avantgarde
TTITLE0=A Night on Earth
TTITLE1=Don't Ever Dance with Maria
TTITLE2=Hora Bialik
TTITLE3=Do Something Different
TTITLE4=Two Marys
TTITLE5=Dulcecita
TTITLE6=Jealousy
TTITLE7=Laura
TTITLE8=What is This Darkness
TTITLE9=Italian Medley #1
TTITLE10=Italian Medley #2
TTITLE11=Hey There
TTITLE12=Linda Guerita
TTITLE13=Saxophone, Why Do You Weep?
EXTD=
EXTT0=
EXTT1=
EXTT2=
EXTT3=
EXTT4=
EXTT5=
EXTT6=
EXTT7=
EXTT8=
EXTT9=
EXTT10=
EXTT11=
EXTT12=
EXTT13=
PLAYORDER=
